<svg style="transform:translateY(-2px)" version="1.0" xmlns="http://www.w3.org/2000/svg"
    width="20" height="20" viewBox="0 0 704.000000 698.000000"
    preserveAspectRatio="xMidYMid meet"><g transform="translate(0.000000,698.000000) scale(0.100000,-0.100000)"
   fill="#ffffff" stroke="none"><path d="M3373 6330 c-98 -26 -22 16 -883 -482 -195 -113 -517 -299 -715 -413
   -198 -114 -407 -235 -465 -269 -183 -106 -282 -225 -337 -402 -17 -56 -18
   -124 -18 -1284 0 -1371 -5 -1276 72 -1424 60 -115 148 -193 344 -305 90 -52
   335 -194 544 -314 1474 -852 1358 -787 1452 -811 37 -10 102 -16 164 -16 139
   0 214 27 434 155 265 153 1377 795 1600 923 110 63 225 132 256 153 125 84
   224 229 254 374 22 104 22 2415 0 2520 -22 107 -83 220 -158 296 -66 67 -103
   90 -547 346 -124 72 -470 272 -770 445 -765 442 -757 438 -828 471 -124 58
   -268 71 -399 37z m481 -1670 c335 -19 472 -64 605 -199 43 -44 90 -104 108
   -138 l33 -61 -68 -70 c-103 -105 -225 -181 -382 -236 -85 -30 -246 -67 -254
   -58 -3 3 -6 26 -6 51 0 56 -37 139 -74 169 -63 49 -114 57 -371 57 l-240 0 -3
   -151 -3 -151 -71 -7 c-104 -11 -239 -47 -463 -126 -109 -38 -201 -67 -204 -64
   -3 3 -6 226 -6 494 l0 489 50 4 c117 8 1185 6 1349 -3z m772 -834 c-39 -175
   -153 -328 -316 -425 -24 -14 -87 -40 -138 -57 l-94 -31 68 -32 c99 -46 136
   -74 202 -155 103 -125 110 -137 346 -597 75 -146 136 -271 136 -278 0 -8 -107
   -11 -420 -9 l-421 3 -105 195 c-58 107 -155 287 -216 400 -145 270 -176 312
   -248 350 -37 19 -133 40 -182 40 l-28 0 -2 -492 -3 -493 -375 0 -375 0 -3 587
   -2 588 62 32 c186 96 331 150 517 195 102 25 123 26 531 33 461 8 476 10 675
   73 55 17 168 65 250 107 171 86 168 87 141 -34z"/></g></svg>